<svg xmlns="http://www.w3.org/2000/svg" viewBox="0 0 158.74 158.74"><defs><style>.a{fill:#363636;}.b{fill:#56ef98;}</style></defs><title>Mesa de trabajo 10</title><path class="a" d="M28.09774,107.77779H137.45517V32.13286H28.09774ZM88.11966,88.52423,91.177,93.7659l-.69109.47579L87.008,89.9356ZM102.304,72.58978l5.90363,9.45131-.597.411-7.04483-9.41039Zm3.28371,26.06235a1.63428,1.63428,0,0,0,1.19979.49521,1.9328,1.9328,0,0,0,1.57776-.76378l.83907.86416a3.1654,3.1654,0,0,1-4.58568.26858,3.10025,3.10025,0,0,1,.01649-4.33807,3.011,3.011,0,0,1,2.18608-.87279,3.09731,3.09731,0,0,1,2.41645,1.09941l-.8136.923a1.908,1.908,0,0,0-1.544-.772,1.79877,1.79877,0,0,0-1.26311.48247,1.68155,1.68155,0,0,0-.52442,1.30056A1.77548,1.77548,0,0,0,105.58769,98.65213Zm-7.98841-.40268V99.4912l-4.07812-1.92162V96.42l4.07812-1.92163v1.23351L94.906,96.974Zm25.59631-26.52688-3.08412-3.76416,1.73468-.45114,2.082,3.71095Zm-.6986.48095-.71646.49326-3.4295-4.22957,2.71554,4.72109-.69765.48029L116.549,68.88488l3.5385-.92024Zm-2.86434,1.972-.67708.46615-4.175-5.2968,1.75774-.45713ZM78.96236,102.17511l-.88676-.89847,1.08056-1.3722.76184,1.61273Zm-.443.30494-.97949.67432-.52449-.53142.99661-1.26558Zm1.88986-1.30108-1.23642-1.29574.83617-1.06188.26525-.33675,1.03548,2.07443Zm-3.58273,1.68386.26977.59694-1.61582,1.11243Zm25.13628-9.31255h1.19156L99.6299,101.245H98.447Zm8.70162,1.62383a3.195,3.195,0,0,1,4.38,0,3.06849,3.06849,0,0,1,0,4.32122,3.195,3.195,0,0,1-4.38,0,3.06849,3.06849,0,0,1,0-4.32122Zm6.37732-.73419h2.07258a3.44575,3.44575,0,0,1,2.40821.76752,2.75,2.75,0,0,1,.83908,2.13552,2.88347,2.88347,0,0,1-.8181,2.1651,3.45292,3.45292,0,0,1-2.49661.79712h-2.00516Zm6.45261,0h4.22907V95.606h-2.92027v1.20842h2.6266v1.11589h-2.6266v1.217h3.01242v1.15784h-4.32122Zm5.38729,3.80953,2.69327-1.27546-2.69327-1.24213V94.49835L132.95977,96.42v1.1496l-4.07811,1.92162Zm1.333-31.3592-1.16784-1.25565,1.66215-.43227.46449,1.02781Zm-.50922.35057-.887.61067-1.57064-1.749,1.6877-.43892Zm-1.44928.99778-.83172.57258L125.481,66.562l1.6953-.44088Zm-1.45154.9993-.7904.54416-2.33736-2.75091,1.711-.445Zm-1.43529.98813-.75943.52283-2.70008-3.25814,1.72438-.44848Zm-10.6177-.87369,3.44886,5.80911-.66314.45653-4.54892-5.80708ZM81.863,100.17812l-1.56956-1.71787,1.09485-1.39,1.31856,2.52693ZM130.83089,65.1706l3.02391-.78642-2.26266,1.55774Zm-17.8435,4.64056,3.78579,6.33293-.65138.44844-4.90262-6.3215ZM109.02989,81.475l-6.69091-8.8943,1.75914-.45737,5.53741,8.93473Zm-8.77995-8.35115.27155-.07061,6.25988,9.96975-.56518.3891L99.5055,74.069Zm-.76865.97589,5.90829,9.88144-.62881.43293L98.20756,75.7168Zm-1.29771,1.64752,5.75663,9.23175-.60549.41687-6.24959-8.254Zm-1.11645,1.41743,5.45361,8.79157-.61167.4211-5.94268-7.81519Zm-1.12022,1.4222,5.154,8.34687-.61783.42534L94.84722,79.983Zm-1.1198,1.4217L99.68136,87.911l-.62607.431-5.33384-6.92976Zm-1.113,1.413,4.54948,7.46549-.635.43714-5.02558-6.492Zm-1.12058,1.42268,4.25117,7.01964-.6437.44316-4.71863-6.05211Zm-5.59975,7.10933L89.76,94.74144l-.70188.48321-3.15845-3.8819Zm-1.13117,1.43611,2.47959,4.32778-.71843.49461-2.848-3.44251Zm-1.11491,1.41549L86.931,96.689l-.745.51288-2.53721-3.00162Zm-1.11165,1.41135,1.88716,3.44169-.77282.532-2.21661-2.57434Zm-1.12421,1.42726,1.6015,2.98507-.802.55212-1.89334-2.14853Zm-4.22981,3.51066-.93829,1.19123a3.68946,3.68946,0,1,1,3.6958-4.693Zm32.85023-30.051V67.84173H115.983Zm-.40556,1.29457.00026.001.47444-.12338,4.14181,6.8529-.638.43925L109.448,70.73065Zm-1.31067.34092,4.49825,7.37332-.62825.43252L107.66266,71.195Zm-1.77048.46053,4.84238,7.89476-.62024.427-5.98019-7.8645Zm-1.78038.46308,5.19559,8.41424-.61331.42223-6.34742-8.37622.47811-.12432-.00028-.00108Zm-1.98226-.67346-.77434.20141-5.1561-6.62042L83.57742,76.19723,81.314,74.33531a7.86775,7.86775,0,0,0,1.0398-3.92917,7.961,7.961,0,1,0-15.92194,0,7.87379,7.87379,0,0,0,2.22892,5.50751L61.66622,81.1309V58.22911h42.21673ZM69.55757,75.24475a6.765,6.765,0,0,1-2.02515-4.83861,6.86044,6.86044,0,1,1,13.72088,0,6.78115,6.78115,0,0,1-.80393,3.21787l-4.14622-3.41078Zm6.71225-3.63357,7.3016,6.00648,14.20129-11.487,4.17576,5.36168-2.1751.56576a.57737.57737,0,0,0-.30716.20115l-7.41829,9.41821h-29.274ZM91.47534,84.26393,95.42687,90.84l-.65475.45076-4.40529-5.59949,3.64347,6.124-.66692.45913-4.09219-5.15627,3.34231,5.67254-.6791.46753-3.793-4.73617ZM81.834,94.64491a4.783,4.783,0,0,0-8.58145-.20621,4.79167,4.79167,0,1,0-.00033,4.44348A4.80546,4.80546,0,0,0,76.548,101.356l-4.15181,5.2711h-10.73V87.07032H87.80017Zm-9.13214,2.01518a3.69108,3.69108,0,1,1-3.69117-3.69117A3.69523,3.69523,0,0,1,72.70189,96.66009ZM29.24847,33.28359h107.056V62.55588l-16.09039,4.18531H110.03177v2.64853l-5.04829,1.31314V57.12858H60.56569V82.778H91.18108L88.667,85.96979H60.56569v20.65727H29.24847Z"/><path class="a" d="M108.54429,39.94709H57.00563v9.677h51.53866Zm-1.15073,8.52632H58.15636V41.09782h49.2372Z"/><path class="a" d="M41.2427,49.62413a4.83852,4.83852,0,1,0-4.83852-4.83852A4.8441,4.8441,0,0,0,41.2427,49.62413Zm0-8.52631a3.6878,3.6878,0,1,1-3.6878,3.68779A3.69187,3.69187,0,0,1,41.2427,41.09782Z"/><path class="a" d="M34.4215,63.5516H56.22087V57.129H34.4215ZM35.522,58.22949H55.12034v4.22158H35.522Z"/><path class="a" d="M34.4215,73.16533H56.22087V66.74269H34.4215ZM35.522,67.84322H55.12034V72.0648H35.522Z"/><path class="a" d="M34.4215,82.77907H56.22087V76.35643H34.4215ZM35.522,77.457H55.12034v4.22158H35.522Z"/><path class="a" d="M34.4215,92.39281H56.22087V85.97017H34.4215ZM35.522,87.0707H55.12034v4.22158H35.522Z"/><path class="a" d="M34.4215,102.00655H56.22087V95.5839H34.4215ZM35.522,96.68444H55.12034V100.906H35.522Z"/><path class="a" d="M131.83077,57.129H110.03139V63.5516h21.79938Zm-1.10053,5.32212H111.13193V58.22949h19.59831Z"/><rect class="a" x="85.30163" y="67.91702" width="4.2433" height="1.10053"/><rect class="a" x="87.09964" y="61.08458" width="12.94568" height="1.10053"/><rect class="a" x="62.71881" y="65.18404" width="2.94874" height="1.10053"/><rect class="a" x="62.71881" y="74.58164" width="2.94874" height="1.10053"/><path class="a" d="M112.85877,99.22263a1.61292,1.61292,0,0,0,1.23762-.54952,2.02528,2.02528,0,0,0,0-2.67267,1.66015,1.66015,0,0,0-2.47525,0,2.02528,2.02528,0,0,0,0,2.67267A1.61293,1.61293,0,0,0,112.85877,99.22263Z"/><path class="a" d="M120.56174,98.69409a1.72144,1.72144,0,0,0,.48247-1.31742,1.76447,1.76447,0,0,0-.48247-1.33015,2.06446,2.06446,0,0,0-1.48111-.46561h-.73007v3.56643h.83084A1.942,1.942,0,0,0,120.56174,98.69409Z"/><path class="a" d="M142.26211,112.67624V27.11979H23.33608v85.55645H71.798v8.61809H54.39271v5.79147H111.157v-5.79147H93.75191v-8.61809Zm-32.25581,9.76882v3.49H55.54344v-3.49H110.0063Zm-37.05756-1.15073v-8.56228H92.60118v8.56228ZM24.48681,28.27051H141.11139v83.255H24.48681Z"/><path class="b" d="M18.80483,120.6228a10.12941,10.12941,0,1,1,7.16627-2.96334A10.10352,10.10352,0,0,1,18.80483,120.6228Zm.0002-18.82091a8.6915,8.6915,0,1,0,6.14572,2.54578A8.63466,8.63466,0,0,0,18.805,101.80189Z"/><path class="b" d="M18.80483,118.54158a8.04829,8.04829,0,0,1-5.69357-13.742h0a8.05207,8.05207,0,1,1,5.69357,13.742ZM13.99562,105.684a6.80139,6.80139,0,1,0,9.61862,0,6.80948,6.80948,0,0,0-9.61862,0Z"/><path class="b" d="M22.08758,107.21064a4.648,4.648,0,0,0-6.5653,0l-.88436-.88436a5.89986,5.89986,0,0,1,8.334,0Z"/><polygon class="b" points="2.95 129.297 0 126.346 10.605 115.741 11.49 116.626 1.769 126.346 2.95 127.528 12.671 117.807 13.555 118.692 2.95 129.297"/><rect class="b" x="2.74577" y="124.46485" width="1.25067" height="2.92169" transform="translate(-88.05553 39.26651) rotate(-45)"/><path class="b" d="M136.325,45.89787a8.75725,8.75725,0,1,1,6.185,2.55757A8.75671,8.75671,0,0,1,136.325,45.89787Zm.88064-11.48906a7.50119,7.50119,0,1,0,5.30421-2.1972A7.51,7.51,0,0,0,137.20566,34.40881Z"/><path class="b" d="M137.5959,44.627a6.94952,6.94952,0,1,1,9.82811-9.82811h0A6.94952,6.94952,0,0,1,137.5959,44.627Zm9.06484-9.06485a5.8701,5.8701,0,1,0,0,8.30158,5.8774,5.8774,0,0,0,0-8.30158Z"/><path class="b" d="M139.67679,36.87976a4.01159,4.01159,0,0,1,5.66634,0l.76326-.76327a5.092,5.092,0,0,0-7.19287,0Z"/><polygon class="b" points="156.194 55.942 158.74 53.395 149.587 44.242 148.824 45.006 157.213 53.395 156.194 54.415 147.804 46.025 147.041 46.789 156.194 55.942"/><rect class="b" x="154.56967" y="52.49252" width="2.52163" height="1.07942" transform="translate(8.14224 125.72157) rotate(-45)"/><path class="b" d="M28.23906,12.97411l-5.53689,2.1368,5.53689,2.1368v1.29451l-6.98737-2.76067V14.44028l6.98737-2.76068Z"/><path class="b" d="M33.99406,7.43722h1.357l-5.147,14.69228h-1.357Z"/><path class="b" d="M42.80614,14.44028v1.34127l-6.98737,2.76067V17.24771l5.55243-2.1368-5.55243-2.1368V11.6796Z"/><rect class="b" x="122.96767" y="132.7995" width="6.24786" height="2.64333"/><rect class="b" x="122.96767" y="136.76449" width="24.27294" height="2.64333"/><rect class="b" x="122.96767" y="140.72948" width="22.56583" height="2.64333"/><rect class="b" x="122.96767" y="144.69447" width="26.67356" height="2.64333"/><rect class="b" x="122.96767" y="148.65945" width="6.24786" height="2.64333"/></svg>