<?xml version="1.0" encoding="utf-8"?>
<svg version="1.1" id="Capa_1" xmlns="http://www.w3.org/2000/svg" xmlns:xlink="http://www.w3.org/1999/xlink" x="0px" y="0px"
	 viewBox="0 0 1920 1080" style="enable-background:new 0 0 1920 1080;" xml:space="preserve">
<style type="text/css">
	.st0{fill:#56EF98;}
	.st1{fill:#333333;}
</style>
<g>
	<path class="st0" d="M1610.6,849.1h-95.1c-19,0-34.5-15.4-34.5-34.5v-95.1c0-19,15.4-34.5,34.5-34.5h95.1c19,0,34.5,15.4,34.5,34.5
		v95.1C1645.1,833.6,1629.6,849.1,1610.6,849.1z"/>
</g>
<g>
	<path class="st0" d="M1163.6,291.3h-30.1c-6,0-10.9-4.9-10.9-10.9v-30.1c0-6,4.9-10.9,10.9-10.9h30.1c6,0,10.9,4.9,10.9,10.9v30.1
		C1174.5,286.4,1169.6,291.3,1163.6,291.3z"/>
</g>
<g>
	<path class="st0" d="M1724.4,487.8h-16.7c-3.3,0-6-2.7-6-6v-16.7c0-3.3,2.7-6,6-6h16.7c3.3,0,6,2.7,6,6v16.7
		C1730.5,485.1,1727.8,487.8,1724.4,487.8z"/>
</g>
<g>
	<path class="st0" d="M891.4,967.9h-59c-11.8,0-21.4-9.6-21.4-21.4v-59c0-11.8,9.6-21.4,21.4-21.4h59c11.8,0,21.4,9.6,21.4,21.4v59
		C912.7,958.3,903.2,967.9,891.4,967.9z"/>
</g>
<g>
	<path class="st1" d="M1110.7,577.3l-35.5,13.7l35.5,13.7v8.3l-44.8-17.7v-8.6l44.8-17.7V577.3z"/>
	<path class="st1" d="M1147.6,541.8h8.7l-33,94.2h-8.7L1147.6,541.8z"/>
	<path class="st1" d="M1204.1,586.7v8.6l-44.8,17.7v-8.3l35.6-13.7l-35.6-13.7V569L1204.1,586.7z"/>
</g>
<g>
	<path class="st1" d="M1616.3,620.4c0,3.4-2.8,6.2-6.4,6.2c-3.4,0-6.2-2.8-6.2-6.2c0-3.5,2.8-6.4,6.2-6.4
		C1613.5,614,1616.3,616.9,1616.3,620.4z"/>
	<path class="st1" d="M1634.3,620.4c0,3.4-2.8,6.2-6.4,6.2c-3.4,0-6.2-2.8-6.2-6.2c0-3.5,2.8-6.4,6.2-6.4
		C1631.5,614,1634.3,616.9,1634.3,620.4z"/>
	<path class="st1" d="M1652.3,620.4c0,3.4-2.8,6.2-6.4,6.2c-3.4,0-6.2-2.8-6.2-6.2c0-3.5,2.8-6.4,6.2-6.4
		C1649.5,614,1652.3,616.9,1652.3,620.4z"/>
	<path class="st1" d="M1670.3,620.4c0,3.4-2.8,6.2-6.4,6.2c-3.4,0-6.2-2.8-6.2-6.2c0-3.5,2.8-6.4,6.2-6.4
		C1667.5,614,1670.3,616.9,1670.3,620.4z"/>
</g>
<g>
	<g>
		<path class="st1" d="M1652.9,210.8h-6c0-35,28.5-63.5,63.5-63.5c32.4,0,59.5,24.2,63.1,56.3l-6,0.7c-3.3-29.1-27.8-51-57.1-51
			C1678.7,153.3,1652.9,179.1,1652.9,210.8z"/>
	</g>
	<g>
		<g>
			<polygon class="st1" points="1759.6,192.6 1770.4,202.2 1779.9,191.4 1780.5,200 1770.9,210.8 1760.2,201.3 			"/>
		</g>
	</g>
</g>
<g>
	<g>
		<path class="st1" d="M1068.9,1005.3c-32.4,0-59.5-24.2-63.1-56.3l6-0.7c3.3,29.1,27.8,51,57.1,51c31.7,0,57.5-25.8,57.5-57.5h6
			C1132.4,976.8,1103.9,1005.3,1068.9,1005.3z"/>
	</g>
	<g>
		<g>
			<polygon class="st1" points="1019.7,959.9 1008.9,950.4 999.4,961.1 998.9,952.5 1008.4,941.8 1019.2,951.3 			"/>
		</g>
	</g>
</g>
<g>
	<path class="st1" d="M1107.1,398.5L864.5,155.9l23.8-23.8l242.5,242.5L1107.1,398.5z M873,155.9L1107.1,390l15.3-15.3L888.4,140.6
		L873,155.9z"/>
</g>
<g>
	
		<rect x="883.1" y="164.5" transform="matrix(0.7071 -0.7071 0.7071 0.7071 145.1249 685.4398)" class="st1" width="33.7" height="6"/>
</g>
<g>
	
		<rect x="1005.4" y="119.6" transform="matrix(0.7071 -0.7071 0.7071 0.7071 100.1995 793.8965)" class="st1" width="6" height="312.8"/>
</g>
<g>
	<polygon class="st1" points="1153.2,420.8 1139.5,398.8 1131.1,407.2 	"/>
</g>
<g>
	<g>
		<rect x="1530.4" y="961" class="st1" width="26" height="11"/>
	</g>
	<g>
		<rect x="1530.4" y="977.5" class="st1" width="101" height="11"/>
	</g>
	<g>
		<rect x="1530.4" y="994" class="st1" width="93.9" height="11"/>
	</g>
	<g>
		<rect x="1530.4" y="1010.5" class="st1" width="111" height="11"/>
	</g>
	<g>
		<rect x="1530.4" y="1027" class="st1" width="26" height="11"/>
	</g>
</g>
<g>
	<path class="st0" d="M1811.7,333c-8.7,0-15.9-7.1-15.9-15.9c0-8.7,7.1-15.9,15.9-15.9s15.9,7.1,15.9,15.9
		C1827.6,325.9,1820.5,333,1811.7,333z M1811.7,305.3c-6.5,0-11.9,5.3-11.9,11.9s5.3,11.9,11.9,11.9s11.9-5.3,11.9-11.9
		S1818.2,305.3,1811.7,305.3z"/>
</g>
<g>
	<path class="st0" d="M744.8,766.8c-8.7,0-15.9-7.1-15.9-15.9c0-8.7,7.1-15.9,15.9-15.9s15.9,7.1,15.9,15.9
		C760.7,759.7,753.6,766.8,744.8,766.8z M744.8,739.1c-6.5,0-11.9,5.3-11.9,11.9s5.3,11.9,11.9,11.9s11.9-5.3,11.9-11.9
		S751.4,739.1,744.8,739.1z"/>
</g>
<g>
	<path class="st0" d="M797.1,267.3c-8.7,0-15.9-7.1-15.9-15.9s7.1-15.9,15.9-15.9c8.7,0,15.9,7.1,15.9,15.9S805.9,267.3,797.1,267.3
		z M797.1,239.6c-6.5,0-11.9,5.3-11.9,11.9s5.3,11.9,11.9,11.9S809,258,809,251.4S803.7,239.6,797.1,239.6z"/>
</g>
<g>
	<path class="st1" d="M1851,800.9c-2.4,0-4.8,0.3-7.1,0.8c-7.4-12.7-21.2-21.3-37-21.3c-23.7,0-42.8,19.2-42.8,42.8
		c0,0.7,0,1.5,0.1,2.2c-1.2-0.2-2.5-0.4-3.8-0.4c-11.3,0-20.5,9.2-20.5,20.5s9.2,20.5,20.5,20.5h90.6c18,0,32.6-14.6,32.6-32.6
		C1883.6,815.5,1869,800.9,1851,800.9z"/>
</g>
<g>
	<path class="st1" d="M975.8,476.5h-90.6c-13,0-23.5-10.5-23.5-23.5s10.5-23.5,23.5-23.5c0.2,0,0.5,0,0.7,0
		c0.6-24.7,20.9-44.7,45.8-44.7c15.5,0,30,8,38.5,20.9c1.9-0.3,3.7-0.4,5.6-0.4c19.6,0,35.6,16,35.6,35.6S995.4,476.5,975.8,476.5z
		 M885.2,435.5c-9.6,0-17.5,7.9-17.5,17.5s7.9,17.5,17.5,17.5h90.6c16.3,0,29.6-13.3,29.6-29.6s-13.3-29.6-29.6-29.6
		c-2.1,0-4.3,0.2-6.4,0.7c-1.3,0.3-2.6-0.3-3.2-1.4c-7.1-12.2-20.3-19.8-34.4-19.8c-22,0-39.8,17.9-39.8,39.8c0,0.7,0,1.4,0.1,2
		c0,0.9-0.3,1.8-1,2.4s-1.6,0.9-2.5,0.7C887.3,435.6,886.2,435.5,885.2,435.5z"/>
</g>
<g>
	<polygon class="st1" points="1153.2,426.8 1107,398.4 1110.1,393.2 1150.5,418 1125.6,377.6 1130.8,374.5 1159.2,420.8 	"/>
</g>
<g>
	<polygon class="st0" points="516.8,296.1 510.8,296.1 510.8,252.2 549.4,252.2 549.4,212.8 588.6,212.8 588.6,179.1 594.6,179.1 
		594.6,218.8 555.4,218.8 555.4,258.2 516.8,258.2 	"/>
</g>
<image style="overflow:visible;" width="6500" height="4500" xlink:href="/images/Iphone.png"  transform="matrix(0.24 0 0 0.24 586.0189 64.0042)">
</image>
</svg>
