<?xml version="1.0" encoding="utf-8"?>
<svg version="1.1" id="Papelería_1_" xmlns="http://www.w3.org/2000/svg" xmlns:xlink="http://www.w3.org/1999/xlink" x="0px"
	 y="0px" viewBox="0 0 1920 1080" style="enable-background:new 0 0 1920 1080;" xml:space="preserve">
<style type="text/css">
	.st0{fill:#56EE97;}
	.st1{fill:#333333;}
	.st2{fill:#FFFFFF;}
	.st3{fill:none;stroke: #56EF98; stroke-width: 4px}
	.st4{fill:none;stroke: #333333; stroke-width: 4px}
</style>
<g>
		<circle class="st3 circle" cx="752" cy="330" r="14" />
</g>
<g>
		<circle class="st3 circle" cx="1649" cy="910" r="14" />
</g>
<g>
		<circle class="st3 circle" cx="1146" cy="1017" r="14" />
</g>
<g>
	<g>
		<path class="st1" d="M1717.3,347.7l-11-11L1809,233.9l11,11L1717.3,347.7z M1711.9,336.6l5.4,5.4l97.1-97.1l-5.4-5.4L1711.9,336.6
			z"/>
	</g>
	<g>
			<rect x="1802.1" y="242" transform="matrix(0.7072 -0.7071 0.7071 0.7072 351.7007 1348.7561)" class="st1" width="4" height="15.6"/>
	</g>
	<g>
			<rect x="1692.3" y="293.3" transform="matrix(0.7072 -0.707 0.707 0.7072 306.2177 1329.894)" class="st1" width="132.6" height="4"/>
	</g>
	<g>
		<polygon class="st1" points="1697.9,356 1707.1,350.2 1703.6,346.7"/>
	</g>
	<g>
		<polygon class="st1" points="1697.8,359.4 1694.5,356.1 1706.7,336.2 1710.1,338.3 1701.3,352.6 1715.6,343.8 1717.7,347.2 		"/>
	</g>
</g>
<g>
		<path class="st3 line" d="M 1730.5 795.6 V 750 H 1755 V 710 H 1797 V 670"/>
</g>
<g>
		<path class="st3 line" d="M 780 830.2 H 810 V 870 H 840 V 890 H 870"/>
</g>
<g>
	<g>
		<path class="st0" d="M1067.8,471.8H912c-8.6,0-15.6-7-15.6-15.6v-58.4c0-8.6,7-15.6,15.6-15.6h155.8c8.6,0,15.6,7,15.6,15.6v58.4
			C1083.4,464.9,1076.4,471.8,1067.8,471.8z"/>
	</g>
	<g>
		<polygon class="st0" points="1025.3,465.4 1050.8,502.1 1050.8,465.4"/>
	</g>
</g>
<g class="dots">
		<circle class="st2" cx="960" cy="425" r="6.8" />
		<circle class="st2" cx="981" cy="425" r="6.8" />
		<circle class="st2" cx="1003" cy="425" r="6.8" />
		<circle class="st2" cx="1024" cy="425" r="6.8" />
</g>
<g>
	<g>
		<path class="st1" d="M1524.9,1015.7h-111.4c-6.1,0-11.1-5-11.1-11.1v-41.8c0-6.1,5-11.1,11.1-11.1h111.4c6.1,0,11.1,5,11.1,11.1
			v41.8C1536,1010.7,1531,1015.7,1524.9,1015.7z"/>
	</g>
	<g>
		<polygon class="st1" points="1437.1,955.9 1418.9,929.6 1418.9,955.9"/>
	</g>
</g>
<g class="dots">
		<circle class="st2" cx="1447" cy="981" r="6.8" />
		<circle class="st2" cx="1462" cy="981" r="6.8" />
		<circle class="st2" cx="1477" cy="981" r="6.8" />
		<circle class="st2" cx="1493" cy="981" r="6.8" />
</g>
<g class="dots">
		<circle class="st1" cx="1739" cy="991" r="6.8" />
		<circle class="st1" cx="1757" cy="991" r="6.8" />
		<circle class="st1" cx="1775" cy="991" r="6.8" />
		<circle class="st1" cx="1793" cy="991" r="6.8" />
</g>
<g>
	<path class="st0" d="M1537.6,203.1c-6.2,0-12-2.4-16.4-6.8l-10.9-10.9c-3.2-3.2-7.6-5-12.2-5c-4.6,0-8.9,1.8-12.2,5l-14.8,14.8
		l-4.2-4.2l14.8-14.8c4.4-4.4,10.2-6.8,16.4-6.8c6.2,0,12,2.4,16.4,6.8l10.9,10.9c3.2,3.2,7.6,5,12.2,5s8.9-1.8,12.2-5l11.6-11.6
		c9-9,23.7-9,32.8,0l11.3,11.3c3.2,3.2,7.6,5,12.2,5c4.6,0,8.9-1.8,12.2-5l14.3-14.3l4.2,4.2l-14.3,14.3c-4.4,4.4-10.2,6.8-16.4,6.8
		c-6.2,0-12-2.4-16.4-6.8l-11.3-11.3c-6.7-6.7-17.6-6.7-24.3,0l-11.6,11.6C1549.6,200.7,1543.8,203.1,1537.6,203.1z"/>
</g>
<g>
	<g>
		<path class="st1" d="M1070,164.4c4.9,4.5,7.4,11.3,7.4,20.3V225h-11.5v-8.8c-2,3.1-4.9,5.5-8.6,7.1c-3.7,1.6-8.2,2.5-13.3,2.5
			c-7.5,0-13.5-1.8-18-5.4c-4.5-3.6-6.7-8.4-6.7-14.2c0-5.9,2.1-10.6,6.4-14.2c4.3-3.6,11.1-5.4,20.4-5.4h19.1v-2.4
			c0-5.2-1.5-9.2-4.5-12c-3-2.8-7.5-4.2-13.4-4.2c-3.9,0-7.8,0.7-11.6,2c-3.8,1.3-7,3-9.6,5.2l-5-9.1c3.4-2.8,7.6-4.9,12.3-6.4
			c4.8-1.5,9.9-2.2,15.2-2.2C1058,157.6,1065.1,159.9,1070,164.4z M1058,213.3c3.4-2.1,5.8-5,7.3-8.8v-9.3h-18.6
			c-10.2,0-15.4,3.4-15.4,10.3c0,3.4,1.3,6,3.9,7.9c2.6,1.9,6.2,2.9,10.8,2.9C1050.6,216.4,1054.6,215.4,1058,213.3z"/>
	</g>
	<g>
		<path class="st1" d="M955.8,165.4c4,3.9,6,9.6,6,16.9V225h-2.5v-13.9c-2.1,4.5-5.3,7.9-9.5,10.5c-4.2,2.5-9.3,3.8-15.3,3.8
			c-7.2,0-12.9-1.7-16.9-5c-4.1-3.3-6.1-7.7-6.1-13.3c0-5.2,1.8-9.4,5.5-12.7c3.7-3.2,9.6-4.8,17.7-4.8h24.7v-7.2
			c0-6.8-1.7-11.9-5.2-15.4c-3.5-3.4-8.6-5.2-15.4-5.2c-4.7,0-9.1,0.8-13.2,2.5c-4.1,1.6-7.6,3.8-10.5,6.6l-1.8-1.8
			c3.1-3,6.9-5.4,11.3-7.1c4.5-1.7,9.1-2.6,14-2.6C946.1,159.5,951.8,161.5,955.8,165.4z M959.3,206.4V192h-24.8
			c-7.1,0-12.2,1.3-15.6,4c-3.3,2.7-5,6.3-5,11c0,5,1.8,8.9,5.4,11.7c3.6,2.9,8.6,4.3,15.1,4.3C946.6,223,954.9,217.4,959.3,206.4z"
			/>
	</g>
	<g>
		<path class="st1" d="M1192.7,163.7c5.6,5,8.4,12.5,8.4,22.6V225h-18.4v-8.4c-3.7,6.3-10.6,9.4-20.7,9.4c-5.2,0-9.7-0.9-13.5-2.6
			c-3.8-1.8-6.7-4.2-8.8-7.3c-2-3.1-3-6.6-3-10.6c0-6.3,2.4-11.3,7.1-14.9c4.7-3.6,12.1-5.4,22-5.4h15.6c0-4.3-1.3-7.6-3.9-9.9
			c-2.6-2.3-6.5-3.5-11.7-3.5c-3.6,0-7.2,0.6-10.6,1.7c-3.5,1.1-6.4,2.7-8.9,4.6l-7.1-13.7c3.7-2.6,8.1-4.6,13.3-6
			c5.2-1.4,10.5-2.1,15.9-2.1C1179,156.2,1187,158.7,1192.7,163.7z M1175.9,210.5c2.6-1.6,4.5-3.8,5.5-6.9v-6.9H1168
			c-8.1,0-12.1,2.6-12.1,7.9c0,2.5,1,4.5,3,6c2,1.5,4.7,2.2,8.1,2.2C1170.3,212.8,1173.3,212,1175.9,210.5z"/>
	</g>
</g>
<g>
	<path class="st1" d="M1017.2,919.5c-12.4,0-24.9-4.7-34.4-14.2c-19-19-19-49.8,0-68.8c9.2-9.2,21.4-14.2,34.4-14.2
		c13,0,25.2,5.1,34.4,14.2c19,19,19,49.8,0,68.8C1042.1,914.8,1029.7,919.5,1017.2,919.5z M1017.2,829.3c-11.1,0-21.6,4.3-29.5,12.2
		c-16.3,16.3-16.3,42.7,0,59c16.3,16.3,42.7,16.3,59,0c16.3-16.3,16.3-42.7,0-59C1038.8,833.6,1028.3,829.3,1017.2,829.3z"/>
</g>
<g>
	<path class="st1" d="M1017.2,909.6c-9.9,0-19.8-3.8-27.3-11.3c-15.1-15.1-15.1-39.6,0-54.6l0,0c15.1-15.1,39.6-15.1,54.6,0
		c15.1,15.1,15.1,39.6,0,54.6C1037,905.8,1027.1,909.6,1017.2,909.6z M994.1,847.9c-12.7,12.7-12.7,33.4,0,46.1
		c12.7,12.7,33.4,12.7,46.1,0c12.7-12.7,12.7-33.4,0-46.1C1027.6,835.2,1006.9,835.2,994.1,847.9L994.1,847.9z"/>
</g>
<g>
	<path class="st1" d="M1033,855.2c-8.7-8.7-22.8-8.7-31.5,0l-4.2-4.2c11-11,29-11,40,0L1033,855.2z"/>
</g>
<g>
	<polygon class="st1" points="941.2,961.2 927,947 977.9,896.1 982.1,900.4 935.5,947 941.2,952.7 987.8,906 992,910.3 	"/>
</g>
<g>
	<rect x="940.2" y="938" transform="matrix(0.7071 -0.7071 0.7071 0.7071 -391.957 943.7047)" class="st1" width="6" height="14"/>
</g>
<g class="arrow">
		<path class="st4" d="M 500 254 L 644 254"/>
			<polygon class="st1" points="631.7,264.1 641.9,253.9 631.7,243.7 640.3,243.7 650.5,253.9 640.3,264.1"/>
</g>
<image style="overflow:visible;" width="4500" height="3768" xlink:href="/images/Papeleria.png"  transform="matrix(0.2552 0 0 0.2552 798.423 99.5047)">
</image>
</svg>
