<?xml version="1.0" encoding="utf-8"?>
<svg version="1.1" id="pro" xmlns="http://www.w3.org/2000/svg" xmlns:xlink="http://www.w3.org/1999/xlink" x="0px" y="0px"
	 viewBox="0 0 1920 1080" style="enable-background:new 0 0 1920 1080;" xml:space="preserve">
<style type="text/css">
	.st0{fill:#56EF98; stroke:#333333; stroke-width:1px;}
	.st1{fill:#333333;}
	.st2{fill:#56EF98;}
	.st3{fill:none;stroke: #56EF98; stroke-width: 4px}
	.st4{fill:none;stroke: #333333; stroke-width: 4px}
</style>
<g>
	<path class="st0 square" d="M1823,362h-59c-11.8,0-21.4-9.6-21.4-21.4v-59c0-11.8,9.6-21.4,21.4-21.4h59c11.8,0,21.4,9.6,21.4,21.4v59
		C1844.4,352.4,1834.8,362,1823,362z"/>
</g>
<g>
		<circle class="st3 circle" cx="1019" cy="132" r="14" />
</g>
<g>
		<circle class="st3 circle" cx="1844" cy="890" r="14" />
</g>
<g>
	<path class="st1 cloud" d="M1557.3,225.5h-90.6c-13,0-23.5-10.5-23.5-23.5s10.5-23.5,23.5-23.5c0.2,0,0.5,0,0.7,0
		c0.6-24.7,20.9-44.7,45.8-44.7c15.5,0,30,8,38.5,20.9c1.9-0.3,3.7-0.4,5.6-0.4c19.6,0,35.6,16,35.6,35.6
		C1592.9,209.5,1576.9,225.5,1557.3,225.5z M1466.6,184.5c-9.6,0-17.5,7.9-17.5,17.5s7.9,17.5,17.5,17.5h90.6
		c16.3,0,29.6-13.3,29.6-29.6c0-16.3-13.3-29.6-29.6-29.6c-2.1,0-4.3,0.2-6.4,0.7c-1.3,0.3-2.6-0.3-3.2-1.4
		c-7.1-12.2-20.3-19.8-34.4-19.8c-22,0-39.8,17.9-39.8,39.8c0,0.7,0,1.4,0.1,2c0,0.9-0.3,1.8-1,2.4c-0.7,0.6-1.6,0.9-2.5,0.7
		C1468.7,184.6,1467.7,184.5,1466.6,184.5z"/>
</g>
<g>
	<path class="st1 cloud" d="M793.2,243.9c-2.7,0-5.3,0.3-7.8,0.9c-8.1-13.9-23.2-23.2-40.5-23.2c-25.9,0-46.9,21-46.9,46.9
		c0,0.8,0,1.6,0.1,2.4c-1.3-0.2-2.7-0.4-4.1-0.4c-12.4,0-22.4,10-22.4,22.4c0,12.4,10,22.4,22.4,22.4h99.2c19.7,0,35.7-16,35.7-35.7
		C828.9,259.9,812.9,243.9,793.2,243.9z"/>
</g>
<g>
	<path class="st0 square" d="M1017.8,963h-95.1c-19,0-34.5-15.4-34.5-34.5v-95.1c0-19,15.4-34.5,34.5-34.5h95.1c19,0,34.5,15.4,34.5,34.5
		v95.1C1052.3,947.6,1036.9,963,1017.8,963z"/>
</g>
<g>
	<path class="st0 square" d="M1428.9,1010.5h-30.1c-6,0-10.9-4.9-10.9-10.9v-30.1c0-6,4.9-10.9,10.9-10.9h30.1c6,0,10.9,4.9,10.9,10.9v30.1
		C1439.8,1005.6,1434.9,1010.5,1428.9,1010.5z"/>
</g>
<g>
	<path class="st0 square" d="M896.7,456.7h-23.1c-4.6,0-8.4-3.7-8.4-8.4v-23.1c0-4.6,3.7-8.4,8.4-8.4h23.1c4.6,0,8.4,3.7,8.4,8.4v23.1
		C905.1,452.9,901.3,456.7,896.7,456.7z"/>
</g>
<g>
	<path class="st1" d="M1092.4,401.9h-20c-1.7,0-3-1.3-3-3v-46.9h-7.1c-1.7,0-3-1.3-3-3v-20c0-1.7,1.3-3,3-3h7v-6
		c0-11.6,6.3-23.9,24-23.9h15.4c1.7,0,3,1.3,3,3v17.1c0,1.7-1.3,3-3,3h-11.2c-0.9,0-1.4,0.3-1.4,1.8v5h12.9c0.8,0,1.7,0.4,2.2,1
		c0.6,0.6,0.8,1.5,0.8,2.3l-1.2,12.1l-0.6,7.8c-0.1,1.6-1.4,2.8-3,2.8h-11.8v46.9C1095.4,400.5,1094,401.9,1092.4,401.9z
		 M1075.4,395.9h14v-46.9c0-1.7,1.3-3,3-3h12l0.4-5.1l0.9-8.9h-12.6c-1.7,0-3-1.3-3-3v-8c0-5.4,3.7-7.8,7.4-7.8h8.2v-11.1h-12.4
		c-16.3,0-18,12.5-18,17.9v9c0,1.7-1.3,3-3,3h-7v14h7.1c1.7,0,3,1.3,3,3V395.9z"/>
</g>
<g>
	<path class="st1" d="M776.9,824c-2.8,0-5.2,2.3-5.2,5.2s2.3,5.2,5.2,5.2c2.8,0,5.2-2.3,5.2-5.2S779.8,824,776.9,824z"/>
	<path class="st1" d="M772.9,813.8h-40c-10.6,0-19.2,8.6-19.2,19.2v40c0,10.6,8.6,19.2,19.2,19.2h40c10.6,0,19.2-8.6,19.2-19.2v-40
		C792.1,822.4,783.5,813.8,772.9,813.8z M785.2,833v40c0,6.7-5.5,12.2-12.2,12.2h-40c-6.7,0-12.2-5.5-12.2-12.2v-40
		c0-6.7,5.5-12.2,12.2-12.2h40C779.7,820.8,785.2,826.3,785.2,833z"/>
	<path class="st1" d="M752.9,827.3c-14.2,0-25.7,11.5-25.7,25.7c0,14.2,11.5,25.7,25.7,25.7s25.7-11.5,25.7-25.7
		C778.6,838.8,767.1,827.3,752.9,827.3z M771.1,853c0,10-8.2,18.2-18.2,18.2c-10,0-18.1-8.2-18.1-18.2s8.1-18.2,18.1-18.2
		C762.9,834.8,771.1,843,771.1,853z"/>
</g>
<g>
	<polygon class="st1" points="1490.4,268.6 1490.4,277.3 1497.6,270.1 1497.6,360.3 1503.6,360.3 1503.6,270.1 1510.8,277.3 
		1510.8,268.6 1500.6,258.5 	"/>
	<polygon class="st1" points="1545.6,306.9 1535.4,296.7 1525.2,306.9 1525.2,315.5 1532.4,308.4 1532.4,401.2 1538.4,401.2 
		1538.4,308.4 1545.6,315.5 	"/>
</g>
<g>
		<path class="st3 line" d="M 1231 318.7 V 272 H 1270 V 232 H 1310 V 192"/>
</g>
<g>
		<path class="st3 line" transform="translate(440, 120)" d="M0.5,80.2 L10.7,70 C17.3,63.4 28.1,63.4 34.7,70 L42.2,77.5 C46.5,81.8 53.5,81.8 57.8,77.5 L65.9,69.4 C72.5,62.8 83.3,62.8 89.9,69.4 L97.8,77.3 C102.1,81.6 109.1,81.6 113.4,77.3 L123.3,67.4"></path>
</g>
<g>
		<path class="st3 line" transform="translate(440, 120)" d="M1322.7,596.9 L1332.9,586.7 C1336.1,583.5 1340.4,581.7 1344.9,581.7 C1349.4,581.7 1353.7,583.5 1356.9,586.7 L1364.4,594.2 C1368.7,598.5 1375.7,598.5 1380,594.2 L1388.1,586.1 C1391.3,582.9 1395.6,581.1 1400.1,581.1 C1404.6,581.1 1408.9,582.9 1412.1,586.1 L1420,594 C1422.1,596.1 1424.8,597.2 1427.8,597.2 C1430.7,597.2 1433.5,596.1 1435.6,594 L1445.5,584.1"></path>
</g>
<g class="dots">
		<circle class="st1" cx="1658" cy="1021" r="6.8" />
		<circle class="st1" cx="1676" cy="1021" r="6.8" />
		<circle class="st1" cx="1694" cy="1021" r="6.8" />
		<circle class="st1" cx="1712" cy="1021" r="6.8" />
</g>
<path class="st1" d="M1157.7,1022c-5.5,0-10.4,2.6-13.4,6.7l-21.7-10.9c0.5-1.5,0.7-3.1,0.7-4.8c0-1.7-0.3-3.3-0.7-4.8l21.7-10.9
	c3.1,4.1,8,6.7,13.4,6.7c9.3,0,16.9-7.6,16.9-16.9s-7.6-16.9-16.9-16.9s-16.9,7.6-16.9,16.9c0,1.7,0.3,3.3,0.7,4.8l-21.7,10.9
	c-3.1-4.1-7.9-6.7-13.4-6.7c-9.3,0-16.9,7.6-16.9,16.9s7.6,16.9,16.9,16.9c5.5,0,10.4-2.6,13.4-6.7l21.7,10.9
	c-0.5,1.5-0.7,3.1-0.7,4.8c0,9.3,7.6,16.9,16.9,16.9s16.9-7.6,16.9-16.9S1167,1022,1157.7,1022z M1157.7,976.3
	c6,0,10.9,4.9,10.9,10.9c0,6-4.9,10.9-10.9,10.9c-6,0-10.9-4.9-10.9-10.9C1146.8,981.1,1151.7,976.3,1157.7,976.3z M1106.4,1023.8
	c-6,0-10.9-4.9-10.9-10.9c0-6,4.9-10.9,10.9-10.9c6,0,10.9,4.9,10.9,10.9C1117.3,1019,1112.4,1023.8,1106.4,1023.8z M1157.7,1049.7
	c-6,0-10.9-4.9-10.9-10.9s4.9-10.9,10.9-10.9c6,0,10.9,4.9,10.9,10.9S1163.7,1049.7,1157.7,1049.7z"/>
<image style="overflow:visible;" width="1000" height="800" xlink:href="/images/Macbook.png"  transform="matrix(1.2823 0 0 1.2823 763.1725 143.0562)">
</image>
</svg>
